<svg xmlns="http://www.w3.org/2000/svg" xmlns:xlink="http://www.w3.org/1999/xlink" xmlns:sketch="http://www.bohemiancoding.com/sketch/ns" width="280" height="280" viewBox="0 0 280 280" version="1.1">
  <title>
    black_cat_logo
  </title>
  <desc>
    Created with Sketch.
  </desc>
  <defs>
    <path id="path-1" d="M146.44 73.31C146.44 32.85 113.74 0.05 73.42 0.05 33.09 0.05 0.4 32.85 0.4 73.31 0.4 113.78 33.09 146.58 73.42 146.58 113.74 146.58 146.44 113.78 146.44 73.31"/>
  </defs>
  <g id="Page-1" stroke="none" stroke-width="1" fill="none" fill-rule="evenodd" sketch:type="MSPage">
    <g id="black_cat_logo" sketch:type="MSLayerGroup">
      <g id="Page-1">
        <g id="BC2">
          <g id="svg2">
            <g id="g10" transform="translate(140.000000, 140.000000) scale(1, -1) translate(-140.000000, -140.000000) ">
              <g id="g12">
                <g id="g14-Clipped">
                  <g id="g14">
                    <path d="M5.11 140C5.11 65.24 65.72 4.43 140.23 4.43 214.74 4.43 275.36 65.24 275.36 140 275.36 214.76 214.74 275.57 140.23 275.57 65.72 275.57 5.11 214.76 5.11 140" id="path22" fill="#FFFFFF" sketch:type="MSShapeGroup"/>
                    <path d="M9.5 140C9.5 212.44 68.03 271.16 140.23 271.16 212.43 271.16 270.96 212.44 270.96 140 270.96 67.56 212.43 8.84 140.23 8.84 68.03 8.84 9.5 67.56 9.5 140M140.23 279.99C121.4 279.99 103.13 276.28 85.92 268.98 77.65 265.47 69.68 261.13 62.22 256.07 54.83 251.07 47.89 245.32 41.57 238.98 35.26 232.65 29.53 225.68 24.54 218.27 19.5 210.79 15.18 202.79 11.68 194.49 4.4 177.23 0.71 158.89 0.71 140 0.71 121.11 4.4 102.77 11.68 85.51 15.18 77.21 19.5 69.21 24.54 61.73 29.53 54.32 35.26 47.35 41.57 41.02 47.89 34.68 54.83 28.93 62.22 23.93 69.68 18.87 77.65 14.53 85.92 11.02 103.13 3.72 121.4 0.02 140.23 0.02 159.06 0.02 177.33 3.72 194.54 11.02 202.81 14.53 210.78 18.87 218.24 23.93 225.63 28.93 232.57 34.68 238.89 41.02 245.2 47.35 250.93 54.32 255.92 61.73 260.96 69.21 265.29 77.21 268.78 85.51 276.06 102.77 279.75 121.11 279.75 140 279.75 158.89 276.06 177.23 268.78 194.49 265.29 202.79 260.96 210.79 255.92 218.27 250.93 225.68 245.2 232.65 238.89 238.99 232.57 245.32 225.63 251.07 218.24 256.07 210.78 261.13 202.81 265.47 194.54 268.98 177.33 276.28 159.06 279.99 140.23 279.99" id="path24" fill="#231F20" sketch:type="MSShapeGroup"/>
                    <path d="M56.93 158.21C57.61 158.81 57.85 159.32 58.08 160.2 58.92 163.37 56.63 165.34 53.82 166.09 50.12 167.07 48.02 165.81 47.04 162.1L46.73 160.93 56.93 158.21 56.93 158.21 56.93 158.21ZM42.36 162.1C42.55 162.41 42.71 162.63 42.8 162.97 43.42 165.31 41.65 167.09 39.56 167.64 37.67 168.15 35.57 167.66 35.01 165.57 34.88 165.08 34.87 164.62 34.93 164.08L42.36 162.1 42.36 162.1 42.36 162.1ZM31.04 168.82C31.72 171.4 32.29 173.55 34.43 175.17 36.52 176.75 38.79 177.5 41.32 176.82 44.58 175.96 45.92 173.2 46.12 170.02 47.82 174.05 52.06 175.95 56.28 174.82 59.3 174.02 61.51 172.17 62.9 169.35 64.48 166.11 63.85 163.52 62.93 160.06L59.15 145.78 59 145.82C58.13 148.61 55.32 148.99 52.75 149.68L34.63 154.51C32.11 155.18 29.43 156.26 27.34 154.26L27.19 154.3 31.04 168.82 31.04 168.82 31.04 168.82Z" id="path26" fill="#231F20" sketch:type="MSShapeGroup"/>
                    <path d="M67.49 184.21C68.99 185.16 70.07 186.68 71.04 188.21 72.53 190.55 73.22 192.68 73.01 195.44L77.92 190.04 66.16 171.5 66.03 171.58C66.04 174.5 63.48 175.72 61.27 177.12L45.46 187.22C43.26 188.62 41.03 190.46 38.4 189.22L38.27 189.3 45.52 200.74 45.65 200.66C45.64 197.74 48.25 196.49 50.49 195.06L67.49 184.21 67.49 184.21 67.49 184.21Z" id="path28" fill="#231F20" sketch:type="MSShapeGroup"/>
                    <path d="M74.1 219.93L74.06 219.9 77.51 210.02 82.91 214.22 74.1 219.93 74.1 219.93 74.1 219.93ZM79.23 205.42L80.38 201.97C80.71 200.96 81.23 199.38 81.88 198.55 82.74 197.43 83.86 197.47 85.03 197.43L85.13 197.31 76.99 190.97 76.9 191.09C77.33 193.66 76.95 195.22 76.09 197.8L69.27 217.95C68.89 218.93 68.32 220.98 67.67 221.81 66.84 222.89 65.57 223.05 64.38 222.95L64.29 223.07 74 230.64 97.38 215.99C100.3 214.19 101.21 213.43 105.1 213.08L105.2 212.96 93.22 203.62 93.13 203.74C93.58 205.05 93.86 206.16 92.87 207.44 92.35 208.11 92.11 208.25 91.38 208.7L87.08 211.54 79.23 205.42 79.23 205.42 79.23 205.42Z" id="path30" fill="#231F20" sketch:type="MSShapeGroup"/>
                    <path d="M123.32 244.42C120.51 245.36 117.45 245.51 114.54 244.71 107.9 242.88 107.48 237.01 109.1 231.13 110.94 224.42 115.68 219.87 122.89 221.87 126.67 222.91 129.73 225.27 132.49 227.92L132.01 220.15C129.11 218.41 125.94 217.22 122.7 216.32 117.75 214.96 113.36 214.63 108.57 216.91 103.97 219.04 100.73 223.06 99.37 228.02 98.14 232.49 98.74 237.73 101.3 241.68 104.12 245.86 108.88 248.43 113.63 249.74L121.12 251.13 123.32 244.42 123.32 244.42 123.32 244.42Z" id="path32" fill="#231F20" sketch:type="MSShapeGroup"/>
                    <path d="M162.83 220.49C163.5 219.11 164.32 217.81 165.38 216.83L165.37 216.69C153.82 217.88 153.07 217.96 150.36 224.02L146.08 233.53 145.31 226.01C145.04 223.4 144.4 220.58 146.69 218.77L146.68 218.62 133.23 220.01 133.25 220.16C135.85 221.46 135.8 224.36 136.07 226.96L137.98 245.62C138.26 248.28 138.89 251.05 136.6 252.86L136.62 253.01 150.07 251.62 150.05 251.47C147.44 250.17 147.5 247.27 147.23 244.66L146.44 236.99 153.51 244.32C154.47 245.29 156.07 246.64 156.22 248.09 156.36 249.4 155.39 250.36 154.5 251.01L154.52 251.16 166.76 249.89 166.75 249.74 154.34 237.64 162.83 220.49 162.83 220.49 162.83 220.49Z" id="path34" fill="#231F20" sketch:type="MSShapeGroup"/>
                    <path d="M213.94 216.33C212.98 219.15 211.23 221.68 208.83 223.5 203.34 227.67 198.44 224.44 194.77 219.57 190.58 214.02 189.87 207.48 195.85 202.95 198.97 200.58 202.7 199.58 206.47 198.99L200.04 194.64C196.89 195.9 194.03 197.69 191.34 199.73 187.25 202.83 184.32 206.13 183.21 211.34 182.1 216.3 183.3 221.33 186.39 225.43 189.19 229.13 193.69 231.84 198.37 232.2 203.39 232.5 208.33 230.27 212.25 227.29L217.91 222.18 213.94 216.33 213.94 216.33 213.94 216.33Z" id="path36" fill="#231F20" sketch:type="MSShapeGroup"/>
                    <path d="M229.45 193.77L229.42 193.81 219.21 191.63 222.68 185.72 229.45 193.77 229.45 193.77 229.45 193.77ZM214.44 190.5L210.89 189.8C209.84 189.59 208.22 189.27 207.31 188.73 206.1 188.01 206 186.9 205.81 185.73L205.68 185.65 200.44 194.55 200.57 194.63C203.06 193.88 204.64 194.06 207.31 194.58L228.1 198.83C229.12 199.08 231.22 199.39 232.12 199.92 233.29 200.62 233.61 201.86 233.66 203.06L233.79 203.14 240.05 192.5 222.6 171.09C220.45 168.41 219.58 167.6 218.75 163.77L218.62 163.69 210.9 176.8 211.03 176.88C212.26 176.26 213.33 175.84 214.71 176.66 215.45 177.1 215.61 177.31 216.15 177.98L219.51 181.9 214.44 190.5 214.44 190.5 214.44 190.5Z" id="path38" fill="#231F20" sketch:type="MSShapeGroup"/>
                    <path d="M226.71 153.25C223.92 152.62 221.72 152.08 220.23 149.53L220.08 149.49 217.12 162.83 217.27 162.86C219.32 160.79 222.04 161.76 224.59 162.33L244.31 166.73C244.32 167.61 244.15 168.35 243.95 169.24 243.45 171.5 242.6 172.81 240.9 174.39L240.58 174.68 248.56 174.45 248.62 173.48 253.69 150.65 245.92 150.67C247.42 151.78 247.57 153.42 247.18 155.19 246.98 156.07 246.76 156.85 246.33 157.63L226.71 153.25 226.71 153.25 226.71 153.25Z" id="path40" fill="#231F20" sketch:type="MSShapeGroup"/>
                    <path d="M262.75 140C262.75 72.11 207.9 17.07 140.23 17.07 72.57 17.07 17.71 72.11 17.71 140 17.71 207.89 72.57 262.93 140.23 262.93 207.9 262.93 262.75 207.89 262.75 140L262.75 140 262.75 140Z" id="path42" stroke="#231F20" stroke-width="3.78" sketch:type="MSShapeGroup"/>
                    <path d="M55.93 74.72C56.25 73.69 56.91 72.78 57.57 71.95 58.63 70.63 59.83 69.57 61.64 69.55L61.73 69.43 57.42 67.51 49.02 77.97 49.09 78.03C50.75 77.46 51.93 78.69 53.16 79.68L61.96 86.8C63.19 87.79 64.66 88.71 64.44 90.43L64.51 90.49 71.15 82.22C71.43 81.87 71.73 81.49 72.06 81.32L72.12 81.25 68.7 78.49 68.65 78.57C69.24 80.1 68.04 81.35 67.11 82.51L66.51 83.26 62.69 80.18 64.46 77.98C64.72 77.65 65.01 77.34 65.28 77.21L65.37 77.09 62.07 74.42 61.98 74.54C62.66 75.63 61.69 76.64 60.99 77.52L60.36 78.3 55.93 74.72 55.93 74.72 55.93 74.72Z" id="path44" fill="#231F20" sketch:type="MSShapeGroup"/>
                    <path d="M62.93 68.85C63.24 66.67 64.41 64.27 66.02 62.8 67.02 61.87 68.68 60.96 69.83 62.21 72.32 64.94 65.01 70.63 69.59 75.64 70.76 76.92 72.5 77.57 74.2 77.37 76.08 77.12 77.7 76.12 79.06 74.87 80.31 73.72 81.44 72.27 82.19 70.75L79.8 68.14C79.42 69.6 78.73 71.06 77.62 72.08 76.75 72.88 75.33 73.48 74.37 72.43 73.39 71.36 74.3 69.75 74.79 68.63 75.43 67.18 76.05 65.83 76.22 64.23 76.43 62.3 76.1 60.77 74.79 59.33 73.46 57.88 71.67 57.14 69.69 57.35 67.5 57.6 65.89 58.71 64.31 60.17 62.84 61.52 61.61 63.14 60.72 64.95L62.93 68.85 62.93 68.85 62.93 68.85Z" id="path46" fill="#231F20" sketch:type="MSShapeGroup"/>
                    <path d="M80.37 53.45C79.41 52.01 78.68 50.86 79.09 49.12L79.04 49.05 72.33 53.55 72.38 53.62C74.13 53.58 74.91 55.13 75.78 56.45L82.03 65.83C82.9 67.14 84.04 68.46 83.33 70.07L83.38 70.14 89.31 66.17C90.72 65.22 92.57 64.02 93.41 62.55 94.44 60.76 94.32 58.73 93.18 57.01 90.79 53.43 86.85 54.06 83.71 56.17 83.41 56.37 83.1 56.57 82.84 56.83 84.83 56.44 86.6 57.18 87.73 58.87 88.92 60.67 89.23 62.5 87.32 63.89L80.37 53.45 80.37 53.45 80.37 53.45Z" id="path48" fill="#231F20" sketch:type="MSShapeGroup"/>
                    <path d="M100.01 56.64L97.22 50.38C99.06 49.92 100.99 50.82 101.76 52.56 102.16 53.45 102.22 54.55 101.71 55.41 101.39 55.95 100.83 56.27 100.28 56.52L100.01 56.64 100.01 56.64 100.01 56.64ZM94.84 45.07C94.2 43.63 93.3 42.14 94.27 40.67L94.24 40.59 86.81 43.92 86.85 44C88.59 44.26 89.1 45.92 89.74 47.36L94.33 57.66C94.98 59.1 95.87 60.59 94.9 62.06L94.94 62.14 103.11 58.47C104.46 57.86 105.58 57.4 106.52 56.17 107.75 54.56 107.93 52.72 107.1 50.86 106.17 48.79 104.03 47.92 101.87 47.96L102.69 40.98C102.88 39.4 103.16 37.88 103.86 36.47L99.94 37.93C98.04 38.65 97.27 39.29 97.07 41.44L96.56 48.92 94.84 45.07 94.84 45.07 94.84 45.07Z" id="path50" fill="#231F20" sketch:type="MSShapeGroup"/>
                    <path d="M112.95 37.45C113.82 36.81 114.89 36.47 115.91 36.2 117.55 35.78 119.14 35.64 120.6 36.7L120.75 36.67 118.43 32.54 105.47 35.92 105.49 36.01C107.16 36.55 107.38 38.24 107.77 39.77L110.62 50.75C111.02 52.28 111.66 53.9 110.45 55.15L110.47 55.24 120.72 52.57C121.15 52.45 121.62 52.33 121.98 52.39L122.07 52.37 120.97 48.11 120.88 48.13C120.45 49.72 118.74 50.01 117.31 50.38L116.37 50.63 115.14 45.87 117.86 45.16C118.27 45.05 118.68 44.98 118.98 45.03L119.12 44.99 118.06 40.88 117.91 40.92C117.81 42.2 116.43 42.43 115.35 42.71L114.38 42.97 112.95 37.45 112.95 37.45 112.95 37.45Z" id="path52" fill="#231F20" sketch:type="MSShapeGroup"/>
                    <path d="M122.03 36.92C123.57 35.36 125.93 34.14 128.1 33.91 129.45 33.77 131.33 34.04 131.51 35.72 131.89 39.41 122.64 39.6 123.33 46.36 123.51 48.08 124.52 49.65 126.01 50.5 127.65 51.43 129.55 51.6 131.39 51.41 133.07 51.24 134.85 50.75 136.35 49.98L135.98 46.45C134.8 47.4 133.39 48.15 131.89 48.31 130.72 48.43 129.22 48.07 129.07 46.65 128.93 45.2 130.61 44.45 131.67 43.85 133.05 43.07 134.35 42.35 135.44 41.17 136.75 39.76 137.4 38.32 137.2 36.39 137 34.42 136 32.76 134.29 31.75 132.38 30.63 130.43 30.56 128.29 30.78 126.31 30.99 124.36 31.55 122.57 32.47L122.03 36.92 122.03 36.92 122.03 36.92Z" id="path54" fill="#231F20" sketch:type="MSShapeGroup"/>
                    <path d="M138.45 35.33C140.21 34.02 142.74 33.17 144.91 33.28 146.27 33.35 148.09 33.89 148.01 35.59 147.82 39.29 138.65 38.07 138.32 44.86 138.23 46.59 138.99 48.29 140.33 49.36 141.82 50.53 143.68 50.98 145.52 51.08 147.21 51.16 149.03 50.95 150.63 50.42L150.81 46.88C149.5 47.63 147.99 48.16 146.48 48.09 145.3 48.03 143.88 47.44 143.95 46.02 144.02 44.56 145.8 44.07 146.94 43.65 148.42 43.08 149.81 42.57 151.07 41.57 152.58 40.37 153.43 39.05 153.53 37.11 153.63 35.14 152.9 33.34 151.36 32.08 149.64 30.69 147.72 30.32 145.58 30.21 143.58 30.12 141.57 30.38 139.67 31.01L138.45 35.33 138.45 35.33 138.45 35.33Z" id="path56" fill="#231F20" sketch:type="MSShapeGroup"/>
                    <path d="M162.27 37.89C163.44 36.68 165.18 35.91 166.85 36.32 168.41 36.7 169.62 37.84 170.26 39.34 170.85 40.73 170.69 42.28 170.34 43.73 169.53 47.09 167.04 51.57 163.02 50.59 159.55 49.74 158.83 46.04 159.57 43 159.98 41.3 161.09 39.16 162.27 37.89M162.66 53.62C168.83 55.13 174.22 52.64 175.79 46.15 177.35 39.73 173.18 34.74 167.21 33.29 161.19 31.82 155.57 34.6 154.06 40.82 152.54 47.09 156.69 52.17 162.66 53.62" id="path58" fill="#231F20" sketch:type="MSShapeGroup"/>
                    <path d="M194.53 48.06C195.08 48.03 195.39 48.14 195.87 48.42 197.56 49.42 197.4 51.23 196.51 52.75 195.35 54.74 193.92 55.09 191.94 53.92L191.31 53.55 194.53 48.06 194.53 48.06 194.53 48.06ZM189.93 55.9C190.14 55.95 190.3 55.98 190.49 56.09 191.74 56.82 191.73 58.33 191.07 59.46 190.47 60.48 189.37 61.16 188.25 60.5 187.98 60.35 187.78 60.15 187.58 59.9L189.93 55.9 189.93 55.9 189.93 55.9ZM187.91 63.58C189.29 64.39 190.44 65.07 192.04 64.85 193.6 64.65 194.89 64 195.69 62.65 196.71 60.89 196.13 59.14 194.87 57.69 197.3 58.7 199.91 57.72 201.25 55.44 202.2 53.82 202.37 52.09 201.78 50.3 201.1 48.24 199.73 47.4 197.88 46.3L190.25 41.79 190.2 41.87C191 43.43 189.96 44.79 189.15 46.18L183.42 55.92C182.62 57.28 181.93 58.88 180.19 58.91L180.15 58.99 187.91 63.58 187.91 63.58 187.91 63.58Z" id="path60" fill="#231F20" sketch:type="MSShapeGroup"/>
                    <path d="M203.58 68.59L203.55 68.57 205.99 62.76 209.08 65.48 203.58 68.59 203.58 68.59 203.58 68.59ZM207.18 60.06L208 58.03C208.23 57.43 208.61 56.5 209.02 56.02 209.58 55.39 210.25 55.45 210.96 55.47L211.02 55.4 206.36 51.3 206.3 51.36C206.47 52.92 206.18 53.85 205.58 55.37L200.75 67.22C200.48 67.8 200.07 69.01 199.65 69.49 199.11 70.1 198.35 70.15 197.63 70.05L197.57 70.12 203.13 75.02 217.7 67.07C219.53 66.09 220.1 65.67 222.45 65.6L222.51 65.53 215.65 59.49 215.59 59.55C215.82 60.36 215.95 61.04 215.31 61.77 214.97 62.15 214.82 62.23 214.37 62.47L211.68 64.02 207.18 60.06 207.18 60.06 207.18 60.06Z" id="path62" fill="#231F20" sketch:type="MSShapeGroup"/>
                    <path d="M214.53 82.99L219.95 78.81C220.83 80.5 220.41 82.59 218.9 83.76 218.13 84.35 217.08 84.67 216.13 84.37 215.52 84.18 215.09 83.72 214.72 83.23L214.53 82.99 214.53 82.99 214.53 82.99ZM224.55 75.26C225.79 74.29 227.03 73.07 228.68 73.67L228.75 73.62 223.78 67.15 223.71 67.21C223.87 68.96 222.38 69.85 221.13 70.81L212.22 77.7C210.98 78.66 209.74 79.88 208.1 79.28L208.02 79.33 213.49 86.45C214.39 87.62 215.1 88.6 216.51 89.24 218.36 90.07 220.19 89.81 221.79 88.57 223.59 87.18 223.93 84.89 223.38 82.78L230.34 81.96C231.92 81.78 233.46 81.69 234.99 82.04L232.66 78.56C231.52 76.88 230.71 76.28 228.58 76.58L221.22 77.83 224.55 75.26 224.55 75.26 224.55 75.26Z" id="path64" fill="#231F20" sketch:type="MSShapeGroup"/>
                    <g id="g66" transform="translate(69.302326, 67.666667)">
                      <g id="g68-Clipped">
                        <g id="mask-4" fill="#FFFFFF" sketch:type="MSShapeGroup">
                          <path d="M146.44 73.31C146.44 32.85 113.74 0.05 73.42 0.05 33.09 0.05 0.4 32.85 0.4 73.31 0.4 113.78 33.09 146.58 73.42 146.58 113.74 146.58 146.44 113.78 146.44 73.31" id="path-3"/>
                        </g>
                        <mask id="mask-2" sketch:name="path-3" fill="white">
                          <use xlink:href="#path-1"/>
                        </mask>
                        <g id="path-3"/>
                        <g id="g68" mask="url(#mask-2)">
                          <g transform="translate(2.790698, -22.400000)" id="path74">
                            <g transform="translate(0.697674, 0.233333)">
                              <path d="M6.15 77.38C6.23 77.29 6.41 77.34 6.45 77.43 6.34 77.45 6.18 77.55 6.15 77.38L6.15 77.38 6.15 77.38ZM27.52 93.69C27.69 93.72 27.83 93.8 27.87 93.99 27.71 93.93 27.52 93.9 27.52 93.69L27.52 93.69 27.52 93.69ZM37.4 110.8C37.63 110.87 37.87 110.63 37.95 110.85 37.85 110.91 37.42 110.97 37.4 110.8L37.4 110.8 37.4 110.8ZM38.85 111.6L39.15 111.6C39.19 111.83 38.85 111.76 38.85 111.6L38.85 111.6 38.85 111.6ZM101.1 120.66C101.18 120.74 101.46 120.94 101.25 121.01 101.24 120.89 101.02 120.71 101.1 120.66L101.1 120.66 101.1 120.66ZM77.83 32.34C77.78 32.14 78.07 32.14 78.02 32.34 77.88 32.33 77.92 32.42 77.83 32.34L77.83 32.34 77.83 32.34ZM0.33 73.3C0.66 73.56 1.2 73.6 1.73 73.66 1.74 73.78 1.66 73.81 1.58 73.86 1.76 73.95 1.95 74.02 1.98 74.26 2.13 74.3 2.12 74.19 2.23 74.21 2.35 74.23 2.18 74.34 2.13 74.36 2.52 74.73 3.02 74.98 3.69 75.07 3.66 75.16 3.66 75.27 3.59 75.32 3.8 75.42 4.07 75.47 4.34 75.52 4.36 75.64 4.11 75.49 4.19 75.67 4.52 75.62 4.42 75.78 4.54 75.87 4.64 75.89 4.7 75.86 4.69 75.77 4.74 75.86 4.85 75.88 4.94 75.92 4.7 76 5.07 76.16 4.84 76.22 4.83 76.37 5.15 76.18 5.14 76.33 4.98 76.48 4.55 76.27 4.44 76.37 4.44 76.65 4.75 76.6 4.94 76.67 4.98 76.79 5.05 76.87 5.04 77.03 5.38 77.13 5.74 77.2 6.05 77.33 6 77.5 5.93 77.34 5.85 77.43 5.96 77.75 6.59 77.56 6.8 77.78 6.76 77.89 6.52 77.8 6.4 77.83 6.52 77.94 6.76 77.94 6.75 78.19 6.94 78.29 6.94 78.06 7.15 78.19 6.9 78.4 7.56 78.4 7.75 78.49 7.72 78.53 7.66 78.56 7.6 78.59 7.95 78.84 8.59 78.81 8.85 79.14 8.85 79.28 8.65 79.23 8.5 79.24 8.87 79.48 9.32 79.63 9.76 79.79 9.78 79.93 9.85 80.13 10.16 80.1 10.21 80.25 10.05 80.19 9.96 80.2 10.58 80.37 10.94 80.79 11.51 81 11.59 81.05 11.59 81.17 11.62 81.25 12.14 81.4 12.5 81.7 12.92 81.96 12.93 82.07 12.74 81.98 12.67 82.01 13.1 82.18 13.53 82.36 13.92 82.56 13.92 82.66 13.78 82.63 13.82 82.76 14.97 82.9 15.45 83.71 16.48 83.97 16.52 84.13 16.52 84.07 16.48 84.22 16.88 84.29 17.17 84.47 17.33 84.78 17.67 84.66 17.78 85.06 17.98 85.18 18.38 85.41 18.75 85.39 19.04 85.63 19.17 85.75 19.2 85.93 19.34 86.04 19.6 86.23 19.84 86.23 20.09 86.34 19.89 86.88 21.05 86.78 21.35 87.14 21.35 87.25 21.17 87.16 21.09 87.19 22 87.65 22.63 88.36 23.55 88.8 23.75 89.22 24.25 89.34 24.51 89.71 24.22 89.72 24.13 89.52 23.85 89.51 24.46 90.23 25.37 90.94 26.16 91.62 25.85 91.79 25.71 91.34 25.26 91.47 25.81 91.94 26.1 92.34 26.71 92.73 26.71 92.79 26.62 92.77 26.56 92.78 26.8 93.06 26.95 93.43 27.37 93.54 27.26 93.68 27.05 93.52 26.91 93.54 26.95 93.85 27.32 93.83 27.42 94.09 27.4 94.18 27.33 94.2 27.21 94.19 27.38 94.81 28.08 94.9 28.42 95.35 28.38 95.5 28.31 95.3 28.22 95.35 28.21 95.46 28.26 95.51 28.37 95.5 28.32 95.69 28.17 95.53 28.02 95.55 28.15 95.8 28.48 95.86 28.62 96.1 28.53 96.18 28.16 96.13 28.37 96.35 28.21 96.39 28.18 96.3 28.07 96.3 28.02 96.58 28.28 96.81 28.57 96.91 28.52 97.34 28.71 97.51 29.12 97.66 28.9 97.78 28.63 97.52 28.37 97.51 28.61 97.64 28.76 97.86 28.92 98.06 28.65 98.1 28.51 98.01 28.32 97.96 28.41 98.2 28.81 98.14 28.92 98.37 28.91 98.43 28.83 98.41 28.77 98.42 29.07 98.56 29.36 98.7 29.62 98.87 29.38 98.99 29.03 98.79 28.82 98.72 28.77 98.83 29.13 98.97 29.27 99.07 29.23 99.13 29.2 99.21 29.22 99.32 29.28 99.09 29.41 99.26 29.57 99.32 29.53 99.47 29.41 99.29 29.32 99.32 29.51 99.65 29.73 99.95 30.02 100.18 29.85 100.17 29.74 100.1 29.62 100.03 29.45 100.18 30.26 100.27 29.92 100.43 29.96 100.58 30.03 100.38 30.12 100.43 30.1 100.63 30.35 100.7 30.47 100.88 30.27 100.89 30.23 100.72 29.97 100.78 30.04 101.04 30.31 101.08 30.52 101.18 30.54 101.27 30.48 101.28 30.42 101.29 30.68 101.47 30.98 101.6 31.23 101.79 31.16 101.9 31 101.68 30.88 101.69 30.99 101.96 30.89 102.24 31.23 102.34 31.12 102.51 30.98 102.68 31.28 102.74 31.21 102.88 31.05 102.84 30.93 102.8 31.11 103.17 31.55 103.28 31.83 103.55 31.73 103.66 31.41 103.57 31.23 103.6 31.42 103.87 31.94 103.82 32.13 104.1 32.15 104.24 32.03 104.23 31.93 104.25 32.12 104.36 32.43 104.36 32.58 104.51 32.48 104.62 32.15 104.54 32.03 104.51 31.98 104.61 32.08 104.81 31.78 104.76 31.92 104.91 32.2 104.91 32.43 104.96 32.45 105.07 32.36 105.05 32.28 105.06 32.38 105.2 32.54 105.27 32.73 105.31 32.72 105.4 32.78 105.56 32.63 105.51 32.91 105.77 33.36 105.86 33.68 106.07 33.49 106.26 33.44 105.88 33.18 105.97 33.46 106.03 33.28 106.35 33.08 106.37 33.49 106.53 33.86 106.73 34.24 106.92 34.22 107.01 34.15 107.04 34.04 107.02 34.07 107.21 34.24 107.01 34.44 107.07 34.4 107.28 34.15 107.08 34.09 107.17 34.66 107.39 35.19 107.64 35.74 107.88 35.37 107.85 35.27 107.88 34.79 107.93 34.84 108.15 34.85 108.02 34.64 108.03 34.58 108.31 34.88 108.22 34.99 108.33 35.03 108.52 34.75 108.4 34.64 108.43 35.16 108.75 35.64 108.8 36.19 109.09 35.78 109.16 36.17 109.79 35.54 109.69 35.5 109.88 35.78 109.75 35.89 109.79 35.9 109.88 35.83 109.9 35.84 109.99 36.06 109.97 36.12 110.03 36.04 110.19 36.36 110.26 36.78 110.22 36.84 110.54 36.96 110.49 37.05 110.42 37.25 110.44 37.22 110.55 36.99 110.46 37.05 110.65 37.31 110.7 37.34 110.75 37.35 111L37.55 111C37.52 111.05 37.43 111.05 37.45 111.15 37.61 111.14 37.61 111.28 37.8 111.25 37.79 111.39 37.71 111.46 37.55 111.45 37.75 111.66 38.44 111.4 38.5 111.85 38.57 111.88 38.76 111.79 38.75 111.9 38.8 112.09 38.53 111.96 38.5 112.05 38.82 112.04 39.03 112.08 39.4 112.05 39.33 112.26 39.05 112.2 38.85 112.16 38.91 112.38 38.7 112.34 38.6 112.41 39.46 112.67 40.44 113.05 41.46 113.16 41.76 113.68 42.29 113.46 42.91 113.67 43.33 114.05 44.39 113.8 44.52 114.47 44.89 114.54 45.19 114.67 45.57 114.72 45.64 114.73 45.62 114.82 45.57 114.82 45.73 114.85 46.15 114.82 46.33 114.98 46.29 115.09 46.02 114.97 45.97 115.08 46.28 115.27 46.72 115.33 47.13 115.43 47.25 115.59 47.46 115.67 47.53 115.88 47.89 115.87 48.02 116.09 48.43 116.03 48.53 116.06 48.65 116.2 48.48 116.23 48.55 116.35 48.83 116.25 48.98 116.28 48.75 116.57 49.13 116.44 49.23 116.64 49.24 116.74 49.06 116.66 48.98 116.69 49.06 116.81 49.09 116.78 49.03 116.94 49.83 117.11 50.34 117.68 50.79 118.04 50.79 118.2 50.42 117.97 50.49 118.2 51.12 118.2 51.42 118.54 51.79 118.8 51.74 118.96 51.57 118.8 51.44 118.95 51.77 119.05 52.23 119.2 52.5 119.5 52.49 119.59 52.21 119.42 52.15 119.56 52.6 119.8 53.12 119.98 53.6 120.21 53.52 120.39 53.32 120.19 53.2 120.36 53.36 120.42 53.48 120.51 53.5 120.71 53.61 120.76 53.8 120.74 53.9 120.81 53.82 120.87 53.76 120.94 53.7 121.01 53.8 121.11 53.94 121.18 54.1 121.21L54.1 121.47C54.13 121.43 54.38 121.35 54.4 121.47 54.45 121.64 54.24 121.54 54.15 121.57 54.58 121.85 55 122.16 55.5 122.37 55.45 122.57 55.2 122.42 55.05 122.42 55.41 122.75 56.2 122.65 56.16 123.38 56.39 123.43 56.61 123.49 56.76 123.63 56.69 123.75 56.41 123.65 56.26 123.68 56.88 123.91 57.33 124.32 57.86 124.64 57.77 124.81 57.64 124.64 57.41 124.69 57.84 124.78 57.89 125.24 58.41 125.24 58.42 125.37 58.34 125.4 58.26 125.44 58.51 125.5 58.68 125.62 58.72 125.9 59.03 125.82 59.13 126.04 59.02 126.25 59.25 126.31 59.43 126.13 59.57 126.25 59.46 126.43 59.24 126.49 58.92 126.45 59.04 126.73 59.31 126.85 59.72 126.85 59.75 126.97 59.71 127.07 59.82 127.2 59.83 127.35 59.49 127.14 59.57 127.35 59.83 127.31 59.83 127.52 60.02 127.56 59.99 127.61 59.9 127.61 59.92 127.71 59.99 127.91 60.44 127.73 60.37 128.06 60.95 128.15 61.05 128.49 61.47 128.66 61.48 128.77 61.43 128.82 61.32 128.81 61.44 129 61.89 128.85 61.97 129.07 61.98 129.18 61.8 129.09 61.72 129.12 61.87 129.27 62.46 129.13 62.28 129.47 62.72 129.4 62.85 129.62 62.78 129.82 63.18 129.83 63.22 129.78 63.58 129.77 63.57 129.97 63.17 129.8 63.23 130.07 63.9 130.22 64.19 130.44 64.88 130.52 64.87 130.7 64.58 130.59 64.58 130.78 64.68 130.79 64.94 130.93 64.88 130.67 64.95 130.88 65.25 130.85 65.23 131.13 65.64 131.13 66.05 131.19 66.24 131.13 66.33 131.14 66.27 131.3 66.34 131.33 66.18 131.38 65.95 131.33 65.89 131.58 66.46 131.45 66.86 131.54 67.34 131.63 67.33 131.72 67.25 131.75 67.14 131.73 67.28 131.85 67.51 131.65 67.64 131.83 67.56 131.99 67.21 131.87 67.24 132.14 67.38 132.16 67.42 132.3 67.59 132.29 67.59 132.39 67.46 132.35 67.49 132.49 68.11 132.37 68.18 132.65 68.75 132.69 68.83 132.9 68.47 132.68 68.55 132.89 69.27 132.7 69.6 133.21 70.25 132.99 70.26 133.19 70.04 133.14 70.05 133.34 70.47 133.33 71.08 133.28 71.25 133.6 71.38 133.61 71.36 133.5 71.51 133.54 71.65 133.59 71.43 133.68 71.55 133.75 71.78 133.8 71.92 133.62 72.06 133.75 72.06 133.92 71.91 133.93 71.81 134 72.09 134.09 72.63 134.14 73.11 134 73.55 134.2 73.98 134.36 74.57 134.3 74.68 134.41 74.8 134.57 74.72 134.75 74.8 134.81 74.98 134.79 75.02 134.9 75.43 134.74 76.04 134.8 76.17 135.21 76.47 135.17 76.72 135.09 77.07 135.11 77.36 135.47 77.94 135.54 78.58 135.56 78.62 135.7 78.51 135.69 78.53 135.81 78.71 135.65 78.94 135.94 79.03 136.11 79.26 136.03 79.35 136.13 79.63 136.11 79.74 136.1 79.65 136.29 79.68 136.36 79.83 136.35 79.92 136.48 80.03 136.36 80.16 136.37 80.13 136.53 80.13 136.67 80.42 136.55 80.48 136.77 80.68 136.67 80.79 136.67 80.79 136.79 80.78 136.92 81.15 136.96 81.25 136.75 81.48 136.67 81.56 136.71 81.56 136.83 81.59 136.92 81.68 136.91 81.62 136.75 81.74 136.77 82.6 137.07 82.95 137.11 83.99 137.12 84.33 137.54 85.28 137.33 85.5 137.87 85.62 137.86 85.72 137.82 85.75 137.72 86.16 137.91 86.4 138.5 87 138.33 88.38 139.23 90.33 139.52 91.82 140.19 94.54 140.73 97.35 142.04 100.4 142.35 100.69 142.38 101.04 142.2 101.25 142.5 101.41 142.53 101.38 142.37 101.5 142.35 101.63 142.41 101.67 142.55 101.85 142.55L101.85 142.4C101.91 142.6 102.27 142.49 102.25 142.75 102.42 142.61 102.58 142.45 102.56 142.1 102.64 142.01 102.72 142.15 102.9 142.1 103.49 140.42 103.07 137.95 102.15 136.77L102.15 136.41C101.65 136.08 101.61 135.28 101.05 135 100.97 134.81 101.19 134.91 101.15 134.75 100.76 134.54 100.64 134.06 100.25 133.85 100.23 133.74 100.42 133.82 100.5 133.8 100.06 133.2 99.47 132.75 99.19 131.98 99.02 131.94 98.97 131.77 98.74 131.78 98.8 131.42 98.48 131.44 98.49 131.13 97.88 131.01 98.11 130.33 97.59 130.17 97.61 130.08 97.73 130.08 97.69 129.92 97.29 129.96 97.54 129.53 97.29 129.52 97.43 129.18 97.13 129.01 97.08 128.71 97.06 128.52 97.15 128.11 97.08 127.76 97.06 127.61 96.93 127.5 97.04 127.3 97.05 127.24 97.16 127.26 97.23 127.25 97.22 127.13 97.17 127.02 97.08 126.95 97.13 126.8 97.25 126.98 97.34 126.95 97.37 126.8 97.2 126.86 97.23 126.7 97.2 126.62 97.47 126.62 97.44 126.7 97.6 126.48 97.58 126.25 97.44 126.05 97.55 125.98 97.7 125.94 97.84 125.9 97.79 125.69 97.79 125.59 97.84 125.39L98.19 125.39C98.06 125.27 98.29 125.28 98.39 125.24 98.33 125.17 98.33 125.05 98.39 124.99 98.64 125.12 98.89 124.96 99.19 124.99 99.22 124.54 99.58 124.59 99.65 124.28 99.8 124.25 99.79 124.37 99.94 124.33 99.89 124.01 100.34 124.06 100.25 123.83 101.62 123.86 103.2 123.47 104.56 123.98 104.42 123.91 104.5 123.61 104.31 123.58 104.29 123.46 104.45 123.52 104.46 123.43 104.5 123.01 104.16 122.96 104.01 122.72 103.4 122.74 103.38 122.45 102.9 122.32 102.84 122.3 102.9 122.23 102.96 122.22 102.83 122.09 102.56 122.22 102.4 122.22 102.26 122.18 102.35 122.15 102.35 122.02L102 122.02C101.96 121.88 102.07 121.89 102.05 121.77 102.01 121.87 101.8 121.78 101.96 121.72 101.82 121.56 101.71 121.84 101.5 121.77 101.36 121.66 101.59 121.47 101.35 121.47 101.4 121.33 101.48 121.54 101.55 121.42 101.39 121.27 101.59 121.03 101.45 120.86 101.44 120.75 101.63 120.84 101.7 120.81 101.72 120.56 101.6 120.44 101.55 120.26 101.53 120.04 101.7 120.15 101.6 119.96 101.81 120.03 102.04 120.23 102.25 120.01 102.29 119.85 102.2 119.82 102.2 119.7 102.3 119.71 102.5 119.58 102.6 119.45 102.55 119.3 102.59 119.24 102.5 119.05 102.6 118.88 102.68 119.14 102.8 119.1 102.68 118.88 102.83 118.75 102.85 118.55 103.02 118.58 103.09 118.51 103.2 118.5 103.16 118.22 103.18 118.13 103.16 117.89 103.34 117.87 103.45 117.93 103.46 118.09 103.62 117.96 103.36 117.82 103.41 117.64 103.8 117.6 103.47 117.13 103.76 117.04 103.76 116.84 103.65 116.75 103.6 116.59 103.76 116.59 103.79 116.7 103.86 116.79 103.98 116.74 103.82 116.57 103.81 116.48 103.99 116.44 104.05 116.6 104.16 116.48 104.17 116.36 104.08 116.33 104.06 116.23 104.09 116.11 104.25 116.12 104.36 116.08 104.41 115.89 104.23 115.94 104.26 115.78 104.26 115.6 104.4 115.56 104.61 115.58 104.44 115.21 104.74 114.94 104.56 114.67 104.64 114.64 104.72 114.34 104.81 114.47 104.91 114.48 104.69 114.19 104.96 114.27 105 114.1 104.91 114.06 104.87 113.97 104.87 113.87 105.06 114 105.06 114.07 105.1 113.95 105.12 113.92 105.16 113.72 105.21 113.6 105.31 113.86 105.46 113.82 105.3 113.51 105.15 113.19 105.11 112.76 105.3 112.69 105.21 112.9 105.36 112.86 105.35 112.32 105.24 111.56 105.51 111.25 105.54 111.09 105.38 111.12 105.36 111 105.41 110.83 105.45 110.97 105.61 110.95 105.45 110.71 105.42 110.4 105.51 110.09 105.5 110.01 105.36 110.14 105.31 109.99 105.26 109.81 105.51 109.92 105.61 109.89 105.66 109.62 105.42 109.05 105.57 108.89 105.4 108.73 105.21 108.6 105.16 108.33 105.47 108.33 104.92 107.86 105.26 107.68 105.15 107.55 105.04 107.43 104.91 107.33 105.14 107.11 104.72 106.91 104.96 106.67 104.79 106.54 104.75 106.29 104.56 106.32 104.62 106.23 104.57 106.02 104.66 105.97 104.56 105.77 104.26 105.77 104.16 105.56 104.13 105.37 104.45 105.37 104.31 105.21 104.21 105.23 104.13 105.18 104.21 105.16 104.17 105.01 104.1 105.21 104.01 105.16 103.28 104.48 103.22 102.23 103.36 100.83 103.4 100.7 103.45 100.59 103.56 100.53 103.61 100.31 103.47 100.28 103.46 100.13 103.45 100.02 103.5 99.97 103.6 99.98 104.04 98.08 105.13 95.45 104.66 93.38 104.35 92.05 103.28 91.8 102.05 91.32 101.76 90.39 101.32 89.6 100.6 89.11 100.6 88.98 100.61 88.86 100.55 88.8L100.25 88.8C100.2 88.13 99.33 88.28 99.24 87.65 99.1 87.7 98.96 87.72 98.99 87.5 98.91 87.48 98.9 87.53 98.89 87.6 98.79 87.51 98.78 87.34 98.54 87.39 98.49 86.96 97.97 86.69 97.64 86.84 97.51 86.71 97.69 86.59 97.64 86.39 97.45 86.42 97.21 86.4 97.14 86.19 97.01 86.18 96.93 86.21 96.89 86.29 96.8 85.94 96.25 86.05 96.23 85.63 95.75 85.56 95.47 85.59 95.08 85.28 95.02 85.51 94.98 85.42 94.83 85.54 94.69 85.51 94.69 85.34 94.63 85.23 94.22 85.28 93.93 85.36 93.62 85.18 93.43 85.51 93.03 85.37 92.72 85.54 92.6 85.49 92.52 85.4 92.42 85.33 92.32 85.34 92.32 85.47 92.27 85.54 91.96 85.28 91.69 85.76 91.27 85.54 91.23 85.59 91.2 85.67 91.22 85.78 91.09 85.75 91.06 85.6 90.92 85.58L90.92 85.78C90.58 85.57 90.36 86.03 89.91 85.84 89.88 86.11 89.72 86.08 89.56 86.29 89.51 86.19 89.43 86.11 89.41 85.99 89.25 85.97 89.29 86.16 89.21 86.24 88.99 86.3 89 86 88.86 86.14 88.9 86.31 88.8 86.35 88.76 86.44 88.54 86.49 88.59 86.27 88.41 86.29 88.4 86.49 88.37 86.66 88.26 86.74 88.05 86.71 87.89 86.64 87.81 86.49 87.81 87.08 87 86.48 86.8 86.99 86.72 86.79 86.4 86.83 86.35 86.59 86.3 86.62 86.3 86.7 86.2 86.69 85.99 86.52 86.18 86.13 86.3 85.99 86.12 85.25 87.07 85.25 87.1 84.57 86.99 84.57 86.96 84.66 86.8 84.63 86.98 84.39 86.89 83.8 87.4 83.67 87.32 83.56 87.12 83.55 86.95 83.52 87.04 83.42 87.2 83.32 86.9 83.32 86.9 83.17 87.14 83.25 87.21 83.17 87.14 83.04 87.03 83.08 86.9 83.12 86.85 82.9 86.98 82.9 87 82.76 86.86 82.82 86.71 82.88 86.5 82.87 86.57 82.54 86.85 82.41 87.1 82.26 87.07 82.18 86.99 82.23 87 82.31 86.85 82.19 87.09 82.03 87.1 81.91L86.6 81.91C86.55 81.76 86.85 81.72 86.7 81.66 86.49 81.73 86.34 81.79 86.15 81.66 86.4 81.42 86.56 81.1 86.9 80.96 86.82 80.87 86.59 81.07 86.4 81.05 86.38 80.68 86.8 80.75 86.85 80.45 86.68 80.42 86.54 80.39 86.65 80.2 86.62 80.27 86.46 80.21 86.45 80.3 86.38 80.24 86.4 80.08 86.2 80.15 86.2 80.02 86.18 79.85 86.3 79.85 86.26 79.73 86.08 79.89 86 79.89 86.24 79.61 86.04 79.47 86.3 79.24 86.28 79.13 86.05 79.22 85.95 79.19 85.95 78.98 86.2 79.01 86.2 78.79 85.51 78.61 86.11 78.1 86.2 77.63 85.96 77.79 86.02 77.53 85.8 77.53 86.02 76.71 85.92 76.04 86.25 75.37 86.02 74.57 86.64 74.07 86.6 73.3L86.35 73.3C86.43 72.68 86.35 71.87 86.65 71.29 86.42 71.12 86.63 70.72 86.4 70.64 86.57 70.3 86.68 69.9 86.8 69.53L86.6 69.53C86.73 69.24 86.61 68.53 86.8 68.22 86.8 68.13 86.72 68.11 86.6 68.12 86.61 67.91 86.97 67.4 86.6 67.31 86.66 67.16 86.81 66.77 86.6 66.66 86.57 66.48 86.64 66.39 86.7 66.31 86.3 65.57 86.64 64.82 86.5 64.04 86.2 64.2 86.05 63.69 86.2 63.54 86.14 63.33 85.84 63.36 85.65 63.29 85.76 63.05 85.86 62.74 85.85 62.53 85.83 62.46 85.79 62.55 85.7 62.53 85.67 62.35 85.81 62.34 85.8 62.18 85.53 62.15 85.53 61.85 85.45 61.63 85.12 61.71 85.14 61.29 84.8 61.18 84.76 60.97 84.9 60.94 84.9 60.77 84.25 60.59 84.38 59.76 83.79 59.71 83.85 59.59 83.92 59.47 83.94 59.31 83.73 59.34 83.6 59.29 83.5 59.21 83.45 58.69 83.53 58.37 83.54 57.8L83.39 57.8C83.43 57.46 83.64 57.42 83.54 57.05 83.39 57.02 83.39 57.14 83.29 57.05 83.33 56.8 83.57 56.75 83.59 56.49 83.5 56.41 83.43 56.29 83.19 56.34 83.27 56.08 83.23 55.89 83.39 55.64 83.28 55.66 83.09 55.51 83.24 55.44 83.2 55.3 83.08 55.51 82.94 55.44 83.15 55.11 83.15 54.59 83.24 54.28 83.15 54.31 83.03 54.31 82.99 54.38 82.78 54.29 82.85 54.08 82.64 54.08 82.68 53.9 82.92 53.92 82.84 53.63 82.46 53.74 82.77 53.05 82.44 53.28 82.44 53.07 82.7 53.13 82.64 52.87 82.61 52.96 82.4 52.87 82.39 52.97 82.23 52.88 82.2 52.61 82.39 52.52 82.39 52.39 82.2 52.44 82.14 52.37 82.14 52.23 82.3 52.26 82.29 52.12 82.2 52.11 82.19 52.18 82.09 52.16 81.99 51.97 81.97 51.73 82.14 51.61 82.1 51.41 81.93 51.64 81.84 51.51 81.91 51.34 82.13 51.1 81.94 50.96 82 50.87 82.04 50.76 82.19 50.76 81.96 50.56 81.71 50.66 81.34 50.66 81.66 50.37 81.41 50.11 81.69 49.85 81.39 49.81 81.39 49.48 81.13 49.4 81.32 49.22 81.05 48.86 81.28 48.69 81.2 48.65 80.98 48.64 80.93 48.74 80.86 48.7 81.06 48.5 81.19 48.49 81.1 48.34 80.95 48.55 80.78 48.49 80.93 48.4 80.92 48.16 81.03 48.04 80.91 48.02 80.89 47.88 80.83 47.79 80.91 47.66 81.05 47.6 81.24 47.58 81.13 47.35 81.08 47.28 80.88 47.08 80.85 46.87 81.14 46.97 81.08 46.73 80.86 46.74 80.89 46.77 80.68 46.73 80.73 46.45 80.83 46.38 80.59 46.23 80.71 46.05 80.79 45.83 81.03 45.77 80.84 45.58 81.12 45.22 81.44 45.22 81.3 45.09 81.05 45.07 80.83 45.02 80.8 44.85 81.03 44.96 80.98 44.77 80.87 44.75 80.88 44.86 80.73 44.82 80.67 44.73 80.75 44.54 80.63 44.42 80.45 44.4 80.44 44.35 80.28 44.42 80.24 44.16 80.55 44.09 80.43 43.91 80.36 43.93 80.39 44.07 80.23 44.01 80.15 43.88 80.54 43.79 80.59 43.61 80.49 43.52 80.46 43.61 80.33 43.61 80.39 43.42 80.3 43.07 80.59 43.11 80.62 42.99 80.37 42.79 80.59 42.8 80.35 42.72 79.96 42.92 79.63 42.91 79.68 42.76 79.93 42.8 79.93 42.6 79.9 42.49 79.76 42.52 79.58 42.45 79.65 42.33 79.7 42.26 79.63 42.1 79.74 41.99 79.78 42.12 79.93 42.1 79.83 41.9 80.03 41.75 80.03 41.5 79.93 41.49 79.97 41.36 79.83 41.4 79.83 41.25 80.07 41.33 80.13 41.25 80.13 41.14 79.92 41.22 79.83 41.2 80.03 40.94 80.09 40.72 80.23 40.49 79.99 40.57 79.73 40.56 79.78 40.34 79.66 40.37 79.55 40.41 79.38 40.39 79.39 40.32 79.51 40.35 79.58 40.34 79.35 40.23 78.89 40.2 78.58 39.99 78.53 39.8 78.68 39.79 78.78 39.73 78.73 39.61 78.58 39.8 78.43 39.73 78.35 39.54 78.65 39.73 78.58 39.53 78.4 39.59 78.2 39.62 77.98 39.63 77.94 39.4 78.3 39.56 78.38 39.43 78.19 39.37 78.14 39.48 77.98 39.38 78.3 39.11 78.87 39.07 78.98 38.58 79.31 38.52 79.54 38.37 79.63 38.08 79.49 38.11 79.53 37.97 79.48 37.92 78.97 38.01 78.58 37.91 78.08 37.98 78.32 37.76 78.58 37.57 78.88 37.42 78.73 37.29 78.6 37.45 78.43 37.37 78.28 37.34 78.47 37.26 78.43 37.17 78.24 37.31 77.96 37.06 77.87 37.27 77.69 37.22 77.91 37.16 77.62 37.22 77.48 37.09 77.9 37.09 77.87 36.92 77.68 36.94 77.55 36.9 77.47 36.82 77.5 36.72 77.62 36.73 77.57 36.56 77.48 36.56 77.47 36.63 77.38 36.61 77.59 36.22 77.97 36.29 78.22 35.96 78.25 35.82 78.04 36.09 78.02 35.91 78.06 35.77 78.16 35.72 78.32 35.71 78.25 35.59 78.19 35.61 78.13 35.71 78 35.65 78 35.43 78.17 35.41 78.05 35.27 77.98 35.37 77.78 35.36 77.68 35.33 77.94 35.12 77.78 35 77.66 35.09 77.59 35.23 77.38 35.21 77.41 35.09 77.54 35.08 77.57 34.85 77.46 34.74 77.33 34.86 77.22 34.9 77.27 34.72 77.54 34.75 77.57 34.55 77.51 34.55 77.53 34.46 77.53 34.4 77.39 34.49 77.2 34.52 77.07 34.6 77.23 34.39 77.41 34.01 77.62 34 77.62 33.87 77.44 33.88 77.38 33.95 77.53 33.57 77.91 33.41 78.17 33.14 77.94 33 77.49 33.31 77.27 33.19 77.78 32.88 77.96 32.48 78.17 31.98 78.12 31.91 77.96 31.94 78.02 31.73 77.89 31.83 77.78 31.96 77.53 31.94 77.55 31.78 77.6 31.64 77.78 31.63 77.74 31.59 77.56 31.47 77.78 31.48 77.21 31.47 76.6 31.64 75.97 31.78 75.83 31.7 76.12 31.49 75.97 31.38 75.69 31.31 75.73 31.58 75.52 31.58 75.76 31.1 76.01 31.23 76.17 30.73 76.12 30.59 75.99 30.78 75.92 30.78 76.09 30.46 76.33 30.22 76.57 29.97 76.42 29.82 76.32 30.16 76.17 30.17 76.11 29.99 76.29 29.84 76.07 29.67 76.2 29.46 76.19 29.82 76.32 29.77 76.28 29.04 76.66 28.9 76.77 28.41L76.62 28.41C76.8 28.18 76.93 27.96 76.77 27.61 76.6 27.64 76.35 27.79 76.17 27.66 76.14 27.52 76.27 27.56 76.32 27.51 76.2 27.42 76.19 27.24 75.97 27.25 75.93 26.99 76.2 27.02 76.27 26.85 76.24 26.64 76.14 26.69 76.22 26.45 76.02 26.43 76.14 26.74 75.92 26.7 75.96 26.49 75.94 26.09 76.17 25.89 76.2 25.7 75.98 25.92 75.82 25.85 75.97 25.59 75.96 25.17 76.17 24.99 76.12 24.85 75.99 25.04 75.92 25.04 75.88 24.89 75.78 24.81 75.72 24.69 75.6 24.72 75.58 24.86 75.47 24.89 75.31 24.75 75.61 24.69 75.47 24.54 75.39 24.52 75.38 24.59 75.32 24.59 75.35 23.9 75.69 23.63 75.62 22.83L75.47 22.83C75.47 22.48 75.92 22.11 75.57 21.87 75.9 21.73 75.64 21.27 75.92 21.11 75.75 20.95 75.74 20.7 75.72 20.51 75.57 20.5 75.56 20.62 75.41 20.61 75.42 20.43 75.51 20.34 75.62 20.26 75.54 20.16 75.34 20.2 75.37 20 75.4 19.71 75.72 19.64 75.57 19.3 75.4 19.34 75.31 19.45 75.12 19.45 75.14 19.21 75.3 19.11 75.27 18.8 75.13 18.83 75.09 18.78 75.12 18.65 74.98 18.73 74.95 18.85 74.82 18.7 74.93 18.51 75.02 18.3 75.12 18.1 75.08 18.01 75.02 18.09 74.97 18.1 74.94 17.94 75.08 17.85 74.92 17.94 74.94 17.79 75.16 17.82 75.27 17.74 75.23 17.6 75.14 17.5 74.92 17.54 74.87 17.18 75.3 17.29 75.32 16.99 75.19 17.04 75.01 17.05 74.82 17.04 74.83 16.94 74.73 16.79 74.57 16.74 74.77 16.48 74.73 15.97 74.82 15.73 74.71 15.75 74.68 15.69 74.62 15.68 74.62 15.4 74.88 15.38 74.97 15.18 74.87 15.21 74.78 15.26 74.66 15.28 74.77 14.97 74.38 14.88 74.57 14.62 74.53 14.47 74.46 14.67 74.36 14.62 74.31 14.37 74.48 14.33 74.46 14.12L74.31 14.12C74.46 13.78 74.22 13.43 74.62 13.21 74.54 13.09 74.34 13.43 74.21 13.26 74.47 13.04 74.48 12.63 74.77 12.56 74.52 12.29 74.13 12.85 73.91 12.76 74.08 12.59 74.21 12.39 74.42 12.26 74.3 12.1 74.19 12.37 74.01 12.31 74.04 12.03 74.26 11.95 74.42 11.81 74.41 11.69 74.29 11.87 74.16 11.81 74.32 11.49 74.41 11.24 74.66 10.95 74.5 10.92 74.47 11.06 74.36 10.95 74.38 10.55 74.68 10.74 74.72 10.4 74.5 10.36 74.51 10.56 74.31 10.55 74.21 10.53 74.3 10.32 74.16 10.34 74.29 10.22 74.42 10.1 74.57 9.99 74.52 9.84 74.4 10.02 74.31 9.99 74.4 9.81 73.93 9.48 74.16 9.34 74.07 9.1 73.92 9.39 73.76 9.39 73.79 9.16 74.14 8.89 74.11 8.63 74.12 8.54 74.03 8.56 73.91 8.48 73.98 8.31 74.12 8.22 74.21 8.08 74.13 7.92 74.15 8.28 73.96 8.18 73.97 8.12 74.06 7.92 74.06 7.78 73.87 7.66 73.81 7.53 73.61 7.52 73.62 7.4 73.84 7.45 73.71 7.33 73.52 7.28 73.63 7.55 73.41 7.48 73.3 7.48 73.39 7.29 73.36 7.22 73.3 7.25 73.26 7.29 73.26 7.37 73.16 7.25 73.24 6.89 73.36 6.82 73.37 6.71 73.18 6.8 73.11 6.77 73.12 6.63 73.2 6.56 73.36 6.57 73.07 6.45 73.33 6.1 73.51 6.01 73.44 5.91 73.39 6.05 73.26 5.97 73.24 5.81 73.37 5.81 73.51 5.81 73.16 5.47 73.69 4.99 73.91 4.76 73.66 4.89 73.82 4.63 73.96 4.6 73.83 4.45 73.73 4.73 73.51 4.66 73.47 4.5 73.68 4.6 73.61 4.41 73.36 4.48 73.26 4.46 73.11 4.55 73.01 4.51 73.24 4.36 73.31 4.3 73.24 4.23 73.12 4.2 72.96 4.2 72.95 3.99 73.04 3.97 72.96 3.8L73.16 3.8C72.79 3.62 73.37 3.38 73.41 3.15 73.38 3.33 73.01 3.19 72.91 3.3 72.82 3.19 72.89 2.94 72.66 3.1 72.72 2.85 72.85 2.69 73.01 2.54 72.94 2.36 73.07 1.84 73.21 1.44 73.09 1.48 72.97 1.52 72.81 1.54 73 1.19 72.74 1.09 72.81 0.78 72.82 0.67 72.94 0.67 73.06 0.68 73.01 0.47 73.09 0.45 72.96 0.33 73.01 0.26 73.09 0.23 73.16 0.18L73.16 0.13 0.33 0.13 0.33 72.85C0.45 72.94 0.66 72.74 0.73 72.95 0.55 72.96 0.55 73.14 0.33 73.1L0.33 73.3 0.33 73.3 0.33 73.3Z" id="Shape" fill="#000000" sketch:type="MSShapeGroup"/>
                            </g>
                          </g>
                        </g>
                      </g>
                    </g>
                    <path d="M211.75 140C211.75 100.37 179.73 68.24 140.23 68.24 100.73 68.24 68.71 100.37 68.71 140 68.71 179.63 100.73 211.76 140.23 211.76 179.73 211.76 211.75 179.63 211.75 140L211.75 140 211.75 140Z" id="path76" stroke="#231F20" stroke-width="3.78" sketch:type="MSShapeGroup"/>
                    <path d="M31.43 124.74C32.81 124.65 34.27 125.42 33.82 126.69 33.82 126.69 33.48 128.45 29.82 128.81 27.49 129.03 24.59 127.71 24.59 127.71 24.59 127.71 26.35 127.85 27.96 126.38 28.75 125.66 29.96 124.84 31.43 124.74" id="path78" fill="#000000" sketch:type="MSShapeGroup"/>
                    <path d="M35.9 125.83C37.02 124.94 38.72 124.74 39.08 126.09 39.08 126.09 39.82 127.81 36.9 130.27 35.03 131.83 31.78 132.42 31.78 132.42 31.78 132.42 33.37 131.5 33.89 129.29 34.14 128.21 34.7 126.79 35.9 125.83" id="path80" fill="#000000" sketch:type="MSShapeGroup"/>
                    <path d="M35.77 124.76C37.1 124.71 38.4 123.82 37.85 122.66 37.85 122.66 37.34 121.01 33.82 121.05 31.58 121.07 28.95 122.63 28.95 122.63 28.95 122.63 30.61 122.31 32.29 123.54 33.13 124.15 34.36 124.81 35.77 124.76" id="path82" fill="#000000" sketch:type="MSShapeGroup"/>
                    <path d="M41.48 122.92C42.98 122.99 44.55 122.11 44.03 120.74 44.03 120.74 43.61 118.82 39.61 118.53 37.06 118.35 33.94 119.87 33.94 119.87 33.94 119.87 35.85 119.66 37.64 121.22 38.53 121.99 39.87 122.85 41.48 122.92" id="path84" fill="#000000" sketch:type="MSShapeGroup"/>
                    <path d="M54.93 112.27C55.94 112.18 56.9 111.45 56.44 110.59 56.44 110.59 55.98 109.35 53.3 109.51 51.59 109.62 49.64 110.91 49.64 110.91 49.64 110.91 50.9 110.6 52.23 111.48 52.89 111.91 53.86 112.37 54.93 112.27" id="path86" fill="#000000" sketch:type="MSShapeGroup"/>
                    <path d="M46.69 119.57C48.25 119.51 49.78 118.46 49.13 117.1 49.13 117.1 48.52 115.16 44.38 115.22 41.75 115.26 38.66 117.1 38.66 117.1 38.66 117.1 40.61 116.72 42.6 118.16 43.58 118.88 45.03 119.65 46.69 119.57" id="path88" fill="#000000" sketch:type="MSShapeGroup"/>
                    <path d="M51.48 116.01C52.86 115.91 54.2 114.94 53.58 113.74 53.58 113.74 53 112.03 49.32 112.19 46.97 112.29 44.27 114.01 44.27 114.01 44.27 114.01 46 113.62 47.8 114.85 48.69 115.47 50 116.11 51.48 116.01" id="path90" fill="#000000" sketch:type="MSShapeGroup"/>
                    <path d="M42.07 123.9C43.35 122.88 45.28 122.65 45.7 124.19 45.7 124.19 46.55 126.14 43.23 128.95 41.11 130.74 37.4 131.41 37.4 131.41 37.4 131.41 39.2 130.36 39.79 127.85 40.08 126.61 40.71 124.99 42.07 123.9" id="path92" fill="#000000" sketch:type="MSShapeGroup"/>
                    <path d="M48.02 120.51C49 119.2 50.8 118.48 51.6 119.86 51.6 119.86 52.92 121.53 50.42 125.1 48.82 127.37 45.4 128.97 45.4 128.97 45.4 128.97 46.89 127.49 46.82 124.91 46.78 123.64 46.97 121.92 48.02 120.51" id="path94" fill="#000000" sketch:type="MSShapeGroup"/>
                    <path d="M53.18 116.81C53.82 115.49 55.29 114.55 56.22 115.63 56.22 115.63 57.67 116.87 56.08 120.43 55.06 122.7 52.33 124.69 52.33 124.69 52.33 124.69 53.38 123.14 52.88 120.89 52.63 119.77 52.51 118.23 53.18 116.81" id="path96" fill="#000000" sketch:type="MSShapeGroup"/>
                    <path d="M56.75 112.45C57.05 111.21 58.12 110.14 59.11 110.88 59.11 110.88 60.56 111.67 59.86 114.98 59.41 117.09 57.46 119.28 57.46 119.28 57.46 119.28 58.07 117.77 57.23 115.95 56.82 115.06 56.43 113.77 56.75 112.45" id="path98" fill="#000000" sketch:type="MSShapeGroup"/>
                    <path d="M57.48 110.36C57.48 110.36 61.77 101.88 61.63 95.35 61.63 95.35 63.35 96.54 63.52 97.11 63.69 97.69 60.7 106.93 57.48 110.36" id="path100" fill="#000000" sketch:type="MSShapeGroup"/>
                    <path d="M247.89 123.46C246.51 123.37 245.06 124.14 245.5 125.41 245.5 125.41 245.85 127.18 249.5 127.53 251.84 127.75 254.74 126.43 254.74 126.43 254.74 126.43 252.98 126.58 251.37 125.11 250.57 124.39 249.37 123.57 247.89 123.46" id="path102" fill="#000000" sketch:type="MSShapeGroup"/>
                    <path d="M243.43 124.56C242.3 123.67 240.61 123.47 240.24 124.82 240.24 124.82 239.5 126.54 242.42 128.99 244.29 130.56 247.55 131.14 247.55 131.14 247.55 131.14 245.96 130.23 245.44 128.02 245.18 126.93 244.63 125.52 243.43 124.56" id="path104" fill="#000000" sketch:type="MSShapeGroup"/>
                    <path d="M243.55 123.48C242.23 123.43 240.92 122.55 241.48 121.38 241.48 121.38 241.98 119.73 245.5 119.77 247.75 119.8 250.38 121.35 250.38 121.35 250.38 121.35 248.72 121.04 247.03 122.27 246.2 122.88 244.97 123.54 243.55 123.48" id="path106" fill="#000000" sketch:type="MSShapeGroup"/>
                    <path d="M237.85 121.65C236.34 121.71 234.78 120.83 235.3 119.46 235.3 119.46 235.72 117.54 239.72 117.25 242.26 117.08 245.39 118.59 245.39 118.59 245.39 118.59 243.48 118.39 241.68 119.95 240.79 120.72 239.46 121.58 237.85 121.65" id="path108" fill="#000000" sketch:type="MSShapeGroup"/>
                    <path d="M224.4 111C223.39 110.91 222.42 110.18 222.89 109.31 222.89 109.31 223.34 108.08 226.02 108.24 227.73 108.35 229.68 109.64 229.68 109.64 229.68 109.64 228.43 109.33 227.09 110.21 226.44 110.64 225.47 111.09 224.4 111" id="path110" fill="#000000" sketch:type="MSShapeGroup"/>
                    <path d="M232.63 118.3C231.08 118.23 229.54 117.19 230.2 115.82 230.2 115.82 230.8 113.88 234.94 113.94 237.58 113.98 240.67 115.83 240.67 115.83 240.67 115.83 238.71 115.44 236.73 116.89 235.75 117.6 234.29 118.37 232.63 118.3" id="path112" fill="#000000" sketch:type="MSShapeGroup"/>
                    <path d="M227.85 114.73C226.46 114.63 225.12 113.66 225.74 112.46 225.74 112.46 226.33 110.75 230.01 110.91 232.36 111.02 235.06 112.73 235.06 112.73 235.06 112.73 233.33 112.34 231.53 113.58 230.63 114.19 229.32 114.84 227.85 114.73" id="path114" fill="#000000" sketch:type="MSShapeGroup"/>
                    <path d="M237.25 122.63C235.97 121.61 234.04 121.38 233.62 122.91 233.62 122.91 232.77 124.87 236.1 127.67 238.22 129.46 241.93 130.13 241.93 130.13 241.93 130.13 240.12 129.09 239.53 126.57 239.25 125.33 238.62 123.72 237.25 122.63" id="path116" fill="#000000" sketch:type="MSShapeGroup"/>
                    <path d="M231.31 119.24C230.33 117.92 228.52 117.21 227.73 118.59 227.73 118.59 226.41 120.26 228.91 123.83 230.51 126.1 233.92 127.69 233.92 127.69 233.92 127.69 232.44 126.22 232.51 123.64 232.55 122.36 232.35 120.64 231.31 119.24" id="path118" fill="#000000" sketch:type="MSShapeGroup"/>
                    <path d="M226.14 115.54C225.5 114.22 224.03 113.28 223.1 114.35 223.1 114.35 221.66 115.6 223.25 119.16 224.27 121.43 227 123.42 227 123.42 227 123.42 225.95 121.87 226.45 119.61 226.7 118.5 226.82 116.95 226.14 115.54" id="path120" fill="#000000" sketch:type="MSShapeGroup"/>
                    <path d="M222.57 111.18C222.28 109.94 221.2 108.87 220.22 109.61 220.22 109.61 218.77 110.4 219.47 113.71 219.91 115.82 221.86 118.01 221.86 118.01 221.86 118.01 221.26 116.5 222.09 114.68 222.51 113.78 222.89 112.49 222.57 111.18" id="path122" fill="#000000" sketch:type="MSShapeGroup"/>
                    <path d="M221.84 109.09C221.84 109.09 217.55 100.61 217.69 94.08 217.69 94.08 215.98 95.27 215.81 95.84 215.64 96.42 218.63 105.66 221.84 109.09" id="path124" fill="#000000" sketch:type="MSShapeGroup"/>
                  </g>
                </g>
              </g>
            </g>
          </g>
        </g>
      </g>
    </g>
  </g>
</svg>
